<?xml version="1.0" encoding="UTF-8"?>
<svg width="406px" height="276px" viewBox="0 0 406 276" version="1.1" xmlns="http://www.w3.org/2000/svg" xmlns:xlink="http://www.w3.org/1999/xlink">
    <title>favicon</title>
    <defs>
        <linearGradient x1="35.2216749%" y1="42.2046116%" x2="64.7783251%" y2="57.7953884%" id="linearGradient-1">
            <stop stop-color="#41D1FF" offset="0%"></stop>
            <stop stop-color="#BD34FE" offset="100%"></stop>
        </linearGradient>
        <linearGradient x1="36.2156696%" y1="0%" x2="63.6953064%" y2="100%" id="linearGradient-2">
            <stop stop-color="#41D1FF" offset="0%"></stop>
            <stop stop-color="#BD34FE" offset="100%"></stop>
        </linearGradient>
    </defs>
    <g id="Page-1" stroke="none" stroke-width="1" fill="none" fill-rule="evenodd">
        <g id="favicon">
            <path d="M321.236829,81.9119695 C371.328129,67.0770853 398.638773,59.1855534 403.168759,58.2373741 C404.301255,57.9529203 405.150628,59.6596431 405.433752,60.5130045 C405.716876,61.6508198 406,62.788635 406,63.9264503 C406,65.6331731 405.716876,67.339896 404.867503,68.762165 C404.584379,69.3310726 404.018131,69.8999802 403.168759,69.8999802 C399.488145,71.0377955 395.807531,71.8911569 392.126918,72.7445183 C379.103208,75.8735102 365.796374,79.2869559 352.772664,82.7004017 C347.67643,84.1226707 342.580195,85.2604859 337.767085,86.682755 C332.482101,88.199842 327.80018,89.5435747 323.72132,90.7139533 L72.762901,178.845789 C67.8790098,181.192533 62.8358612,183.539277 57.8723414,185.886021 L52.944212,188.232765 C51.2454672,189.086126 49.2635983,190.223942 47.5648536,191.077303 C43.6011158,193.352933 39.3542538,195.34411 35.1073919,197.619741 C32.8423989,198.757556 30.2942817,199.895371 28.0292887,201.31764 C23.7824268,203.593271 19.818689,205.868901 15.8549512,208.428985 C12.7405858,210.704616 9.62622036,212.695792 6.79497908,215.255877 C6.22873082,215.540331 5.94560669,216.109238 5.66248257,216.678146 C5.09623431,217.531507 4.52998605,218.953776 2.83124128,218.384869 C2.26499303,218.384869 1.41562064,217.815961 1.13249651,217.247053 C0.283124128,215.824784 0,214.118061 0,212.411339 C0,211.273523 0.283124128,210.135708 0.566248257,208.997893 C1.13249651,208.144532 1.41562064,207.29117 1.9818689,206.437809 C2.54811715,205.584447 3.11436541,205.01554 3.9637378,204.162178 C5.09623431,203.024363 6.22873082,201.886548 7.64435146,201.033186 C9.53184565,199.516099 30.8822362,188.447924 71.695523,167.82866 L321.236829,81.9119695 Z" id="Logo-path" fill="url(#linearGradient-1)" fill-rule="nonzero"></path>
            <g id="front" transform="translate(67.000000, 0.000000)">
                <rect id="Rectangle" fill="url(#linearGradient-2)" x="0" y="0" width="267" height="276" rx="133.5"></rect>
                <path d="M254.143708,92 L248.466363,93.6010941 C237.297656,96.4269466 226.415327,99.5353844 215.532997,102.926407 C201.214143,107.165186 187.181665,111.403965 172.862811,115.642744 C158.257579,120.446693 143.365971,125.250642 128.760739,130.054591 C125.037837,131.184932 121.314935,132.315273 117.592033,133.7282 C111.00536,135.988882 104.705064,138.532149 98.1183905,140.792831 L84,145.903791 C85.5559821,155.697883 87.1119645,165.397932 88.6679466,175.268231 C90.099832,184.87613 91.2453404,194.484028 92.3908487,204.091927 C93.8227342,215.112752 94.9682425,225.850991 96.6865051,236.589231 L96.5199779,235.512392 C98.7152098,233.349925 101.061736,231.29597 103.559555,229.242014 C109.859851,223.872894 116.732901,219.35153 123.892329,214.830166 C138.49756,205.787438 153.675546,197.592466 169.426286,191.375591 C183.458763,186.006471 198.350372,181.767692 213.241981,179.224425 C219.542277,178.376669 225.556196,177.246328 231.570114,176.398572 C233.861131,175.833402 235.865771,179.50701 236.438525,181.202522 C237.297656,183.463204 237.584033,185.723886 237.584033,188.267153 C237.584033,192.223346 236.438525,199.570563 231.283737,200.135733 C226.12895,200.700904 221.260539,201.54866 216.105752,202.396415 C205.509799,204.091927 195.200224,206.352609 185.177026,209.461047 C169.139909,214.830166 153.961923,221.894798 139.356691,230.08977 C125.896968,237.719572 112.437245,245.914544 101.268539,256.370198 C100.23922,257.385888 99.3578881,258.547604 98.5181615,259.750374 C102.503155,260.847281 106.569838,261.697939 110.718982,262.304488 C118.451164,263.434829 126.183345,264 133.915527,264 C148.807135,263.717415 163.985121,260.891562 178.017599,254.957272 L177.905912,255.062535 L179.556313,254.433547 C188.672184,250.874229 197.343513,246.465899 205.383878,241.208558 L207.228062,239.980254 C216.392129,233.763378 224.983441,226.416162 232.142869,217.938604 C240.447804,208.330706 247.320854,197.875051 252.475642,186.289056 L252.361091,186.535612 L252.430896,186.456841 L252.475642,186.289056 C252.762019,186.289056 252.762019,186.006471 252.762019,186.006471 C252.704744,186.006471 252.658923,186.017774 252.622267,186.03586 L252.561555,186.083475 L253.403217,184.161189 C255.829404,178.464271 257.8707,172.586497 259.38048,166.52787 L259.921446,164.247407 C261.353332,158.313116 262.212463,152.096241 262.785217,145.879365 C263.071594,140.22766 263.071594,134.29337 262.785217,128.641665 C262.49884,122.42479 261.639709,116.490499 260.207823,110.556209 C258.569165,104.319356 256.547792,98.0825031 254.143708,92 Z M74.1081507,148.27058 C47.9709708,159.225236 30.1155309,166.634188 20.5418311,170.497436 C19.0764689,171.076923 17.6111067,171.946154 16.1457445,172.525641 C13.7011161,173.561439 11.3605262,174.700093 9,175.819038 C10.3528986,179.962972 11.9560242,184.067384 13.8011649,188.171795 C19.0764689,199.761538 25.8171351,210.482051 34.0231635,220.04359 C48.969858,237.138462 68.6057117,250.176923 90,258 L89.2546626,257.721171 C89.1617935,256.829206 89.1207827,255.945613 89.1207827,255.102564 C89.1207827,253.458752 87.8266888,246.195701 87.6554205,244.671795 C86.2877491,234.62735 81.7719925,202.493612 74.1081507,148.27058 Z M132.188788,12 C124.433152,12 116.39027,12.8648401 108.634634,14.3062403 C101.45349,15.7476406 94.2723455,17.7656009 87.0912011,20.3601212 L87.1946096,20.2541783 L85.8726425,20.7763943 C66.1969936,28.6656728 48.126437,41.1386139 34.0686121,57.2286947 L32.8017493,58.701367 L31.3667025,60.5279315 C27.5462156,65.4029883 23.8013817,70.3286619 20.7374267,75.7098895 C20.4501809,75.9981696 20.1629351,76.2864496 19.8756894,76.2864496 C17.5777232,80.6106502 15.5670027,84.6465708 13.5562823,88.9707715 C10.3965787,96.4660526 7.81136676,104.249614 6.0878921,112.033175 C4.65166322,118.375336 3.78992589,125.005777 3.21543433,131.636218 L3.21543433,130.771378 C2.92818856,136.825259 2.92818856,142.87914 3.21543433,148.64474 L3.21543433,147.7799 C3.50268011,154.698621 4.65166322,161.329062 6.0878921,167.959503 C6.09077461,167.973003 6.09365942,167.986502 6.09654653,168 C9.82591704,166.228049 13.5581974,164.499256 17.2904774,162.770463 C21.3119183,160.752502 25.6206049,159.311102 29.6420458,157.581422 C38.2594191,154.122061 47.1640381,150.374421 55.7814114,146.91506 C59.2283608,145.47366 62.6753101,144.03226 66.1222594,142.87914 C68.1784758,142.114836 70.2397397,141.350532 72.3047132,140.586228 L72.1544207,139.708059 C69.8564545,127.312017 67.5584883,114.627695 65.2605221,102.231653 C64.3987847,97.0426127 63.2498016,92.141852 62.3880643,86.9528112 L60.6645896,77.4395698 L59.8028523,73.1153691 C58.941115,69.9442887 58.0793777,66.1966481 58.3666234,62.7372876 C58.6538692,60.1427672 67.3034038,57.7467253 69.8886158,56.3053251 C74.771794,53.7108047 83.6549722,49.4045644 88.5381504,47.3866041 C92.2723455,45.9452039 99.7192948,43.5038037 103.45349,42.0624034 C104.283311,41.7420922 108.017506,40.5979903 114.656075,38.6300978 C118.39027,37.1526626 126.124465,34.7112623 129.85866,33.4140022 C141.531633,29.2920567 162.204606,22.3333723 174,18.537949 C173.110639,18.3596865 157.215964,14.184954 156.317433,14.0179603 C148.274551,12.5765601 140.23167,12 132.188788,12 Z M136.566248,3.05333509 C156.101813,3.62224271 175.354254,8.45795746 192.624826,17.5604794 C209.612273,26.3785474 224.617852,38.894515 236.225941,53.9705669 C242.498848,61.9235527 249.905081,72.6681222 254.236829,81.9119695 L256.236829,86.5732235 L256.72132,90.7139533 C258.508059,95.6340467 259.990616,100.656303 261.140865,105.74116 C263.688982,115.981497 265.104603,126.221834 265.104603,136.462172 C265.104603,146.702509 264.25523,156.942846 262.273361,166.898729 C260.291492,176.854612 257.177127,186.241588 252.930265,195.628564 C248.966527,204.446632 244.153417,212.695792 238.20781,220.376045 C226.316597,235.736551 211.594142,248.536972 194.606695,257.639494 C177.619247,266.742016 158.366806,271.862185 139.114365,272.715546 C137.415621,272.715546 135.716876,272.715546 134.301255,273 C116.464435,273 98.3444909,269.3021 81.9232915,262.190755 C64.0864714,254.226049 47.9483961,242.563442 35.2078103,227.771844 C28.9790795,220.376045 23.0334728,212.695792 18.5034868,204.162178 C13.8909228,195.71153 10.3184468,186.999638 7.53687107,178.026503 L7.53493241,178.021 L7.30146386,177.557866 C5.56416996,174.0444 4.69552301,170.801332 4.69552301,167.82866 C-2.04382642,135.331828 3.21682118,99.6485209 19.6359833,71.0377955 C19.6359833,70.4688879 19.9191074,69.8999802 20.2022315,69.3310726 C24.7322176,61.6508198 30.111576,54.2550207 36.0571827,47.4281293 C48.2315202,33.4898927 63.5202232,22.1117403 80.5076709,14.4314875 C89.0013947,10.4491341 98.0613668,7.60459604 107.404463,5.61341937 C117.030683,3.62224271 126.656904,2.76888128 136.566248,3.05333509 Z M177.106308,21 C177.278364,22.1549748 177.347441,23.3448976 177.347441,24.6034515 C177.347441,27.1678193 177.06066,29.4472573 176.200314,31.7266953 C175.62675,33.4362737 174.479623,34.8609225 173.045713,36.0006415 C158.133056,40.8444472 143.220399,45.688253 128.307742,50.8169885 C121.138195,53.3813562 114.25543,55.9457239 107.085884,58.7950214 C103.931283,59.9347404 100.489901,61.0744594 97.3353003,62.4991082 C92.4600085,64.4936164 87.5847167,66.7730544 82.709425,69.0524924 C78.9812607,71.0470007 75.2530964,72.7565792 72.0984959,75.6058767 C71.7353629,75.9666644 71.37223,76.2988993 71,76.5935432 C71.0565307,76.9260511 71.1250309,77.2632181 71.2381503,77.6003849 C72.3852777,82.7291204 73.2456233,87.5729261 74.3927508,92.7016616 C75.5398783,98.4002566 76.6870058,104.383781 77.8341332,110.082376 C79.2901027,118.52068 81.1567303,126.958985 82.5653161,135.397289 L82.8559324,137.199 L88.9684037,134.970613 C97.1343801,131.993223 105.303876,129.015833 113.395085,126.038442 C116.549685,124.898723 119.417504,123.759004 122.285323,122.904215 C125.057548,121.954449 127.829772,121.036342 130.601997,120.128788 L138.918671,117.416679 C141.690896,116.509125 144.463121,115.591018 147.235345,114.641252 C158.133056,111.222095 169.030767,107.518009 179.928478,104.098852 C195.701481,99.2550458 211.474484,94.6961699 227.247487,89.8523641 C230.975651,88.7126451 234.990597,87.8578559 238.718761,86.7181369 C242.514709,85.6574212 246.261592,84.5967052 250,83.5359896 C245.472945,74.8695244 240.037204,66.6287287 233.556688,59.0799512 L234.130251,59.6498107 C226.673923,51.1019182 218.357249,43.408815 209.180229,37.1403605 C200.042765,30.812955 190.103267,25.8136407 179.877987,21.8859584 L178.998932,21.552 L179.068133,21.6116892 L179.157035,21.6864832 L177.106308,21 Z" id="logo-copy" fill="#F8F8F8" fill-rule="nonzero"></path>
            </g>
        </g>
    </g>
</svg>